<?xml version="1.0" encoding="UTF-8"?>
<svg width="758px" height="261px" viewBox="0 0 758 261" version="1.1" xmlns="http://www.w3.org/2000/svg" xmlns:xlink="http://www.w3.org/1999/xlink">
    <!-- Generator: Sketch 58 (84663) - https://sketch.com -->
    <title>logo</title>
    <desc>Created with Sketch.</desc>
    <g id="logo" stroke="none" stroke-width="1" fill="none" fill-rule="evenodd">
        <g id="Group-3-Copy">
            <g id="Group-2">
                <polygon id="Fill-1" fill-opacity="0" fill="#1E1C39" points="0.285595102 261 757.714405 261 757.714405 0 0.285595102 0"></polygon>
                <g id="Group" transform="translate(44.639534, 45.391304)">
                    <path d="M191.881965,113.478261 L191.881965,65.3634783 L180.87309,69.9933913 L176.505933,59.9165217 L194.793403,51.3829565 L203.800665,51.3829565 L203.800665,113.478261 L191.881965,113.478261 Z M234.1888,114.930783 C231.277347,114.930783 228.684373,114.567656 226.409801,113.841391 C224.135229,113.115127 222.163962,112.161919 220.495942,110.981739 C218.827923,109.801559 217.417709,108.439834 216.265259,106.896522 C215.112809,105.35321 214.233321,103.79479 213.626768,102.221217 L224.271714,97.682087 C225.302853,99.9819245 226.68274,101.691647 228.411415,102.811304 C230.14009,103.930962 232.065865,104.490783 234.1888,104.490783 C236.372378,104.490783 238.101038,104.097395 239.374799,103.310609 C240.648559,102.523822 241.28543,101.585739 241.28543,100.496348 C241.28543,99.285907 240.754704,98.3024386 239.693237,97.545913 C238.63177,96.7893875 236.796976,96.1085248 234.1888,95.5033043 L227.911011,94.1415652 C226.51594,93.838955 225.075399,93.3547859 223.589345,92.6890435 C222.103291,92.023301 220.753732,91.1760051 219.540627,90.1471304 C218.327522,89.1182557 217.326725,87.8775725 216.538206,86.4250435 C215.749688,84.9725145 215.355435,83.2779227 215.355435,81.3412174 C215.355435,79.1624239 215.825506,77.2257476 216.765662,75.5311304 C217.705819,73.8365133 218.994724,72.3991363 220.632416,71.2189565 C222.270108,70.0387767 224.195884,69.1309597 226.409801,68.4954783 C228.623718,67.8599968 231.004401,67.5422609 233.551922,67.5422609 C237.797791,67.5422609 241.588688,68.3744265 244.924727,70.0387826 C248.260767,71.7031388 250.717268,74.3509565 252.294305,77.9822609 L242.013289,82.1582609 C241.164116,80.4031217 239.920701,79.1321778 238.283009,78.3453913 C236.645317,77.5586048 235.00765,77.1652174 233.369958,77.1652174 C231.67161,77.1652174 230.185579,77.5132139 228.911818,78.2092174 C227.638058,78.9052209 227.001187,79.7979076 227.001187,80.8873043 C227.001187,81.9161791 227.531912,82.7332144 228.59338,83.3384348 C229.654847,83.9436552 231.095388,84.4883454 232.915045,84.9725217 L239.738728,86.6066087 C244.287873,87.6960054 247.669353,89.435988 249.88327,91.8266087 C252.097188,94.2172293 253.204129,97.0466087 253.204129,100.314783 C253.204129,102.251488 252.749222,104.097383 251.839393,105.852522 C250.929564,107.607661 249.640659,109.16608 247.972639,110.527826 C246.304619,111.889572 244.303026,112.963822 241.967798,113.750609 C239.632571,114.537395 237.039597,114.930783 234.1888,114.930783 Z M264.940864,79.1624348 L257.116374,79.1624348 L257.116374,68.9947826 L264.940864,68.9947826 L264.940864,55.3773913 L276.859564,55.3773913 L276.859564,68.9947826 L287.777457,68.9947826 L287.777457,79.1624348 L276.859564,79.1624348 L276.859564,96.4111304 C276.859564,97.4400051 276.965709,98.393213 277.178002,99.2707826 C277.390296,100.148352 277.799713,100.889736 278.406265,101.494957 C279.255439,102.463309 280.468526,102.947478 282.045563,102.947478 C283.076702,102.947478 283.895536,102.841566 284.502089,102.629739 C285.108641,102.417912 285.684858,102.130437 286.230755,101.767304 L289.597105,112.207304 C288.202034,112.873047 286.700839,113.372346 285.093475,113.705217 C283.48611,114.038089 281.71197,114.204522 279.771002,114.204522 C277.526757,114.204522 275.51,113.856525 273.72067,113.160522 C271.931339,112.464518 270.430144,111.51131 269.217039,110.30087 C266.366241,107.577391 264.940864,103.704025 264.940864,98.6806957 L264.940864,79.1624348 Z M297.96749,48.477913 L319.98524,48.477913 C325.140937,48.477913 329.780996,49.2646878 333.905553,50.8382609 C338.030111,52.411834 341.548064,54.6359856 344.459516,57.5107826 C347.370969,60.3855796 349.600016,63.8201539 351.146726,67.8146087 C352.693435,71.8090635 353.466778,76.1968457 353.466778,80.978087 C353.466778,85.8198503 352.693435,90.2378931 351.146726,94.2323478 C349.600016,98.2268026 347.370969,101.646247 344.459516,104.490783 C341.548064,107.335319 338.030111,109.54434 333.905553,111.117913 C329.780996,112.691486 325.140937,113.478261 319.98524,113.478261 L297.96749,113.478261 L297.96749,48.477913 Z M319.439345,101.858087 C323.018006,101.858087 326.172046,101.358788 328.901519,100.360174 C331.631006,99.3615602 333.905544,97.9544439 335.725202,96.1387826 C337.544851,94.3231214 338.909583,92.1292303 339.819412,89.5570435 C340.729241,86.9848567 341.184149,84.1252331 341.184149,80.978087 C341.184149,77.8309408 340.729241,74.9713172 339.819412,72.3991304 C338.909583,69.8269437 337.544851,67.6330526 335.725202,65.8173913 C333.905544,64.0017301 331.631006,62.5946137 328.901519,61.596 C326.172046,60.5973863 323.018006,60.098087 319.439345,60.098087 L310.250119,60.098087 L310.250119,101.858087 L319.439345,101.858087 Z M389.404842,108.757565 L388.676982,108.757565 C387.281911,110.452182 385.598753,111.90469 383.627457,113.11513 C381.656161,114.325571 379.123841,114.930783 376.030423,114.930783 C373.725523,114.930783 371.55713,114.552526 369.525178,113.796 C367.493227,113.039474 365.719087,111.995485 364.202706,110.664 C362.686324,109.332515 361.503564,107.728705 360.654391,105.852522 C359.805217,103.976338 359.380636,101.91862 359.380636,99.6793043 C359.380636,97.3794668 359.835544,95.3066179 360.745373,93.4606957 C361.655197,91.6147734 362.928943,90.0260936 364.566636,88.6946087 C366.204319,87.3631238 368.130103,86.3493948 370.34402,85.6533913 C372.557938,84.9573878 374.968948,84.6093913 377.577124,84.6093913 C380.488577,84.6093913 382.884424,84.8363456 384.764737,85.2902609 C386.64505,85.7441762 388.191736,86.213215 389.404842,86.6973913 L389.404842,85.3356522 C389.404842,82.9752925 388.464699,81.023486 386.584386,79.4801739 C384.704073,77.9368618 382.36888,77.1652174 379.578738,77.1652174 C375.45418,77.1652174 371.966555,78.890087 369.115758,82.3398261 L360.472426,76.4389565 C365.203536,70.5077964 371.663225,67.5422609 379.851685,67.5422609 C386.766385,67.5422609 392.043314,69.1612012 395.68263,72.3991304 C399.321946,75.6370597 401.141576,80.4333595 401.141576,86.7881739 L401.141576,113.478261 L389.404842,113.478261 L389.404842,108.757565 Z M389.404842,95.4125217 C388.009771,94.7467793 386.56923,94.2172194 385.083176,93.8238261 C383.597122,93.4304328 381.974618,93.2337391 380.215615,93.2337391 C377.364818,93.2337391 375.166097,93.8540808 373.619388,95.0947826 C372.072679,96.3354845 371.299336,97.8636431 371.299336,99.6793043 C371.299336,101.494966 372.042352,102.947473 373.528406,104.03687 C375.01446,105.126266 376.727945,105.670957 378.668914,105.670957 C380.245951,105.670957 381.701655,105.383481 383.036071,104.808522 C384.370487,104.233562 385.507756,103.477048 386.447912,102.538957 C387.388069,101.600865 388.115921,100.511484 388.631491,99.2707826 C389.147061,98.0300808 389.404842,96.7440067 389.404842,95.4125217 Z M423.705221,111.299478 L404.962839,68.9947826 L418.519222,68.9947826 L429.801045,95.9572174 L430.437922,95.9572174 L441.264832,68.9947826 L454.548268,68.9947826 L426.616659,133.087304 L413.788135,133.087304 L423.705221,111.299478 Z M461.462934,48.477913 L473.745563,48.477913 L473.745563,74.4417391 L501.131277,74.4417391 L501.131277,48.477913 L513.413907,48.477913 L513.413907,113.478261 L501.131277,113.478261 L501.131277,86.061913 L473.745563,86.061913 L473.745563,113.478261 L461.462934,113.478261 L461.462934,48.477913 Z M551.171619,108.757565 L550.44376,108.757565 C549.048689,110.452182 547.36553,111.90469 545.394234,113.11513 C543.422938,114.325571 540.890619,114.930783 537.797201,114.930783 C535.492301,114.930783 533.323907,114.552526 531.291956,113.796 C529.260005,113.039474 527.485865,111.995485 525.969483,110.664 C524.453102,109.332515 523.270342,107.728705 522.421168,105.852522 C521.571995,103.976338 521.147414,101.91862 521.147414,99.6793043 C521.147414,97.3794668 521.602322,95.3066179 522.512151,93.4606957 C523.421975,91.6147734 524.695721,90.0260936 526.333413,88.6946087 C527.971097,87.3631238 529.896881,86.3493948 532.110798,85.6533913 C534.324715,84.9573878 536.735726,84.6093913 539.343902,84.6093913 C542.255355,84.6093913 544.651202,84.8363456 546.531515,85.2902609 C548.411828,85.7441762 549.958514,86.213215 551.171619,86.6973913 L551.171619,85.3356522 C551.171619,82.9752925 550.231477,81.023486 548.351164,79.4801739 C546.47085,77.9368618 544.135658,77.1652174 541.345516,77.1652174 C537.220958,77.1652174 533.733333,78.890087 530.882535,82.3398261 L522.239203,76.4389565 C526.970314,70.5077964 533.430003,67.5422609 541.618463,67.5422609 C548.533163,67.5422609 553.810092,69.1612012 557.449408,72.3991304 C561.088723,75.6370597 562.908354,80.4333595 562.908354,86.7881739 L562.908354,113.478261 L551.171619,113.478261 L551.171619,108.757565 Z M551.171619,95.4125217 C549.776548,94.7467793 548.336007,94.2172194 546.849953,93.8238261 C545.363899,93.4304328 543.741395,93.2337391 541.982393,93.2337391 C539.131595,93.2337391 536.932875,93.8540808 535.386166,95.0947826 C533.839457,96.3354845 533.066114,97.8636431 533.066114,99.6793043 C533.066114,101.494966 533.80913,102.947473 535.295183,104.03687 C536.781237,105.126266 538.494723,105.670957 540.435691,105.670957 C542.012728,105.670957 543.468433,105.383481 544.802848,104.808522 C546.137264,104.233562 547.274533,103.477048 548.21469,102.538957 C549.154846,101.600865 549.882699,100.511484 550.398268,99.2707826 C550.913838,98.0300808 551.171619,96.7440067 551.171619,95.4125217 Z M614.22245,102.130435 C612.281481,105.882801 609.567199,108.954249 606.079521,111.34487 C602.591844,113.73549 598.239894,114.930783 593.023541,114.930783 C589.566191,114.930783 586.397001,114.340702 583.515876,113.160522 C580.634751,111.980342 578.147923,110.331141 576.055316,108.21287 C573.96271,106.094598 572.325042,103.598101 571.142265,100.723304 C569.959487,97.8485074 569.368107,94.6862781 569.368107,91.2365217 C569.368107,87.7867654 569.959487,84.6094058 571.142265,81.7043478 C572.325042,78.7992898 573.96271,76.302793 576.055316,74.2147826 C578.147923,72.1267722 580.634751,70.4927016 583.515876,69.3125217 C586.397001,68.1323419 589.566191,67.5422609 593.023541,67.5422609 C598.179239,67.5422609 602.516025,68.722423 606.03403,71.0827826 C609.552036,73.4431422 612.129846,76.4994595 613.767538,80.2518261 L602.849645,84.7909565 C601.818505,82.7332071 600.499273,81.1747879 598.891909,80.1156522 C597.284544,79.0565164 595.267787,78.5269565 592.841577,78.5269565 C591.26454,78.5269565 589.778508,78.8295622 588.383437,79.4347826 C586.988366,80.040003 585.760115,80.8872989 584.698648,81.9766957 C583.637181,83.0660924 582.803184,84.3975573 582.196631,85.9711304 C581.590078,87.5447035 581.286807,89.2998164 581.286807,91.2365217 C581.286807,93.1732271 581.590078,94.92834 582.196631,96.501913 C582.803184,98.0754861 583.637181,99.4069511 584.698648,100.496348 C585.760115,101.585739 586.988366,102.43304 588.383437,103.038261 C589.778508,103.643481 591.26454,103.946087 592.841577,103.946087 C595.328442,103.946087 597.436181,103.386266 599.164856,102.266609 C600.893531,101.146951 602.273418,99.5280106 603.304557,97.4097391 L614.22245,102.130435 Z M621.501045,48.477913 L633.419745,48.477913 L633.419745,83.8831304 L633.965639,83.8831304 L648.886759,68.9947826 L663.625915,68.9947826 L663.625915,69.7210435 L647.067111,85.7895652 L664.990651,112.752 L664.990651,113.478261 L650.888373,113.478261 L638.696726,93.96 L633.419745,99.1346087 L633.419745,113.478261 L621.501045,113.478261 L621.501045,48.477913 Z" id="1stDayHack" fill="#F81B84" fill-rule="nonzero"></path>
                    <path d="M61.7253414,170.217391 L5.45988531,170.217391 C2.44591595,170.217391 0,167.846917 0,164.920828 L0,16.6443891 C0,13.720577 2.44591595,11.3478261 5.45988531,11.3478261 L61.7253414,11.3478261 C103.007802,11.3478261 136.473659,43.8148921 136.473659,83.8624647 L136.473659,97.7050298 C136.473659,137.752602 103.007802,170.217391 61.7253414,170.217391" id="Fill-2" fill="#F81B84"></path>
                    <path d="M73.0981463,158.869565 L16.8326903,158.869565 C13.8187209,158.869565 11.372805,156.499091 11.372805,153.573002 L11.372805,5.29656302 C11.372805,2.37275093 13.8187209,0 16.8326903,0 L73.0981463,0 C114.380607,0 147.846464,32.467066 147.846464,72.5146386 L147.846464,86.3572038 C147.846464,126.404776 114.380607,158.869565 73.0981463,158.869565" id="Fill-2" fill="#F5CE2B"></path>
                    <path d="M59.763474,114.14578 L59.763474,52.2010128 L46.0781381,52.2010128 C44.5767098,47.4153846 44.7180872,47.8686266 43.2166588,43.0829983 L59.763474,34.0434783 L94.7374243,34.0434783 L94.7374243,114.14578 L106.904367,114.14578 L106.904367,124.826087 L46.0781381,124.826087 L46.0781381,114.14578 L59.763474,114.14578 Z" id="Fill-6" fill="#F81B84"></path>
                </g>
            </g>
        </g>
    </g>
</svg>