<?xml version="1.0" encoding="UTF-8"?>
<svg width="233px" height="257px" viewBox="0 0 233 257" version="1.1" xmlns="http://www.w3.org/2000/svg" xmlns:xlink="http://www.w3.org/1999/xlink">
    <!-- Generator: Sketch 58 (84663) - https://sketch.com -->
    <title>logo-icon</title>
    <desc>Created with Sketch.</desc>
    <g id="logo-icon" stroke="none" stroke-width="1" fill="none" fill-rule="evenodd">
        <g id="Group-2">
            <polygon id="Fill-1" fill-opacity="0" fill="#403F4C" points="0 257 233 257 233 0 0 0"></polygon>
            <g id="Group" transform="translate(45.000000, 45.000000)">
                <path d="M60.119457,168 L5.31783758,168 C2.3822815,168 0,165.660406 0,162.772434 L0,16.4275656 C0,13.5418415 2.3822815,11.2 5.31783758,11.2 L60.119457,11.2 C100.327888,11.2 132.923077,43.2441234 132.923077,82.7700034 L132.923077,96.432244 C132.923077,135.958124 100.327888,168 60.119457,168" id="Fill-2" fill="#F81B84"></path>
                <path d="M71.1963801,156.8 L16.3947607,156.8 C13.4592046,156.8 11.0769231,154.460406 11.0769231,151.572434 L11.0769231,5.22756565 C11.0769231,2.34184153 13.4592046,0 16.3947607,0 L71.1963801,0 C111.404811,0 144,32.0441234 144,71.5700034 L144,85.232244 C144,124.758124 111.404811,156.8 71.1963801,156.8" id="Fill-2" fill="#F5CE2B"></path>
                <path d="M58.2086308,112.658824 L58.2086308,51.5209996 L44.879341,51.5209996 C43.4169747,46.7977129 43.554674,47.2450506 42.0923077,42.5217639 L58.2086308,33.6 L92.2726773,33.6 L92.2726773,112.658824 L104.123077,112.658824 L104.123077,123.2 L44.879341,123.2 L44.879341,112.658824 L58.2086308,112.658824 Z" id="Fill-6" fill="#F81B84"></path>
            </g>
        </g>
    </g>
</svg>