<svg xmlns="http://www.w3.org/2000/svg" viewBox="0 0 1440 1440"><defs><style>.cls-1{fill:#bae0ea;}.cls-2{fill:#77c8e5;}.cls-3{fill:#63b6cc;}.cls-4{fill:#f176ae;}.cls-5{fill:#e94696;}.cls-6{fill:#ef97c0;}.cls-7{fill:#41404d;}.cls-8{fill:#f6ce2d;}.cls-9{fill:#2d2d35;}.cls-10{fill:#52515b;}</style></defs><g id="Build"><polygon class="cls-1" points="965.64 725.74 418.47 714.62 617.31 507.35 1156.22 504.5 965.64 725.74"/><polygon class="cls-2" points="965.64 1179.51 418.47 1168.04 418.47 714.62 965.64 725.74 965.64 1179.51"/><polygon class="cls-3" points="1156.22 1019.53 965.64 1179.51 965.64 725.74 1156.22 504.5 1156.22 1019.53"/><rect class="cls-4" x="581.32" y="370.79" width="302.67" height="302.94"/><polygon class="cls-5" points="1009.31 549.58 883.99 673.74 883.99 370.79 1009.31 259.81 1009.31 549.58"/><polygon class="cls-6" points="883.99 370.79 581.32 370.79 726.76 259.81 1009.31 259.81 883.99 370.79"/><ellipse class="cls-7" cx="685.94" cy="471.32" rx="8.64" ry="18.04"/><path class="cls-7" d="M770.47,471.32,762,474.65c-.09-1.1-.14-2.22-.14-3.33,0-9.9,3.9-18,8.63-18s8.64,8.14,8.64,18c0,.8,0,1.6-.08,2.39Z"/><rect class="cls-7" x="695.15" y="560.85" width="75.01" height="8.22"/><rect class="cls-7" x="717.24" y="516.68" width="30.82" height="6.46" rx="2.3" transform="translate(212.74 1252.56) rotate(-90)"/><polygon class="cls-8" points="1036.9 1204.28 144.56 1186.65 381.06 940.11 1249.74 937.19 1036.9 1204.28"/><rect class="cls-7" x="570.71" y="1007.43" width="79.13" height="79.2"/><polygon class="cls-9" points="682.61 1054.18 649.85 1086.64 649.85 1007.43 682.61 978.42 682.61 1054.18"/><polygon class="cls-10" points="649.85 1007.43 570.71 1007.43 608.74 978.42 682.61 978.42 649.85 1007.43"/><rect class="cls-7" x="570.71" y="928.23" width="79.13" height="79.2"/><polygon class="cls-9" points="682.61 974.98 649.85 1007.43 649.85 928.23 682.61 899.22 682.61 974.98"/><polygon class="cls-10" points="649.85 928.23 570.71 928.23 608.74 899.22 682.61 899.22 649.85 928.23"/><rect class="cls-7" x="650.14" y="999.83" width="86.73" height="86.81"/><polygon class="cls-9" points="772.79 1051.06 736.88 1086.64 736.88 999.83 772.79 968.02 772.79 1051.06"/><polygon class="cls-10" points="736.88 999.83 650.14 999.83 691.82 968.02 772.79 968.02 736.88 999.83"/><rect class="cls-7" x="650.14" y="915.66" width="86.73" height="86.81"/><polygon class="cls-9" points="772.79 966.89 736.88 1002.47 736.88 915.66 772.79 883.85 772.79 966.89"/><polygon class="cls-10" points="736.88 915.66 650.14 915.66 691.82 883.85 772.79 883.85 736.88 915.66"/><rect class="cls-7" x="736.88" y="1007.43" width="79.13" height="79.2"/><polygon class="cls-9" points="848.77 1054.18 816.01 1086.64 816.01 1007.43 848.77 978.42 848.77 1054.18"/><polygon class="cls-10" points="816.01 1007.43 736.88 1007.43 774.9 978.42 848.77 978.42 816.01 1007.43"/><rect class="cls-7" x="736.88" y="928.23" width="79.13" height="79.2"/><polygon class="cls-9" points="848.77 974.98 816.01 1007.43 816.01 928.23 848.77 899.22 848.77 974.98"/><polygon class="cls-10" points="816.01 928.23 736.88 928.23 774.9 899.22 848.77 899.22 816.01 928.23"/><rect class="cls-7" x="650.14" y="830.59" width="86.73" height="86.81"/><polygon class="cls-9" points="772.79 881.83 736.88 917.4 736.88 830.59 772.79 798.79 772.79 881.83"/><polygon class="cls-10" points="736.88 830.59 650.14 830.59 691.82 798.79 772.79 798.79 736.88 830.59"/><rect class="cls-7" x="650.14" y="746.43" width="86.73" height="86.81"/><polygon class="cls-9" points="772.79 797.66 736.88 833.24 736.88 746.42 772.79 714.62 772.79 797.66"/><polygon class="cls-10" points="736.88 746.42 650.14 746.42 691.82 714.62 772.79 714.62 736.88 746.42"/><polygon class="cls-7" points="707.83 670.86 650.14 746.42 736.88 746.42 707.83 670.86"/><polygon class="cls-9" points="707.83 670.86 736.88 746.42 772.79 714.62 707.83 670.86"/><g id="helmet"><rect class="cls-7" x="564.24" y="308.9" width="323.3" height="323.59"/><polygon class="cls-9" points="1021.4 499.86 887.54 632.48 887.54 308.9 1021.4 190.36 1021.4 499.86"/><polygon class="cls-10" points="887.54 308.9 564.24 308.9 719.6 190.36 1021.4 190.36 887.54 308.9"/><rect class="cls-2" x="618.52" y="367.22" width="214.75" height="61.57"/></g><g id="solderer"><polygon class="cls-10" points="914.35 958.5 876.91 946.94 1030.93 740.89 1105.4 763.88 914.35 958.5"/><polygon class="cls-9" points="908.23 978.33 914.35 958.5 1105.4 763.88 1089.16 816.45 908.23 978.33"/><rect class="cls-7" x="882.19" y="943.04" width="20.75" height="39.19" transform="translate(-290.55 1531.46) rotate(-72.84)"/><path class="cls-2" d="M883.76,953.6l21.12,6.52c-18.23,18.56-44,46.69-62.18,65.26C853.82,1004.62,872.63,974.36,883.76,953.6Z"/><polyline class="cls-3" points="904.88 960.12 901.38 971.43 842.7 1025.38"/></g></g></svg>