<svg xmlns="http://www.w3.org/2000/svg" viewBox="0 0 1440 1440"><defs><style>.cls-1{fill:#bae0ea;}.cls-2{fill:#77c8e5;}.cls-3{fill:#63b6cc;}.cls-4{fill:#f176ae;}.cls-5{fill:#e94696;}.cls-6{fill:#ef97c0;}.cls-7{fill:#41404d;}.cls-8{fill:#f6ce2d;}.cls-9{fill:#2d2d35;}.cls-10{fill:#52515b;}</style></defs><g id="Innovate"><polygon class="cls-1" points="966.76 723.75 417.32 712.59 616.98 504.46 1158.13 501.6 966.76 723.75"/><polygon class="cls-2" points="966.76 1179.41 417.32 1167.89 417.32 712.59 966.76 723.75 966.76 1179.41"/><polygon class="cls-3" points="1158.13 1018.76 966.76 1179.41 966.76 723.75 1158.13 501.6 1158.13 1018.76"/><rect class="cls-4" x="580.84" y="367.34" width="303.93" height="304.2"/><polygon class="cls-5" points="1010.6 546.86 884.76 671.53 884.76 367.34 1010.6 255.9 1010.6 546.86"/><polygon class="cls-6" points="884.76 367.34 580.84 367.34 726.88 255.9 1010.6 255.9 884.76 367.34"/><ellipse class="cls-7" cx="685.89" cy="468.28" rx="8.67" ry="18.11"/><ellipse class="cls-7" cx="770.78" cy="468.28" rx="8.67" ry="18.11"/><path class="cls-7" d="M735.53,603.89c-21.15,1.42-42.8-19.25-40.39-45.71a64,64,0,0,0,75.32,0C773,582.46,755.11,602.59,735.53,603.89Z"/><rect class="cls-7" x="717.33" y="513.83" width="30.94" height="6.49" rx="2.3" transform="translate(215.72 1249.87) rotate(-90)"/><polygon class="cls-8" points="1038.31 1204.28 142.26 1186.58 379.75 939.01 1252.03 936.09 1038.31 1204.28"/><path class="cls-2" d="M689.59,1078.93c16.3,5.42,32.64,10.69,49.73,12.89,15.64,2,32.25,1.12,46.95-5a89.66,89.66,0,0,0,19.52-11.36c6-4.5,11.69-9.39,17.56-14.06.69-.55,1.38-1.1,2.08-1.64a2.92,2.92,0,0,1,.28-.21l1.3-1c1.41-1,2.84-2.08,4.29-3.07a83.47,83.47,0,0,1,9.21-5.53c.78-.39,1.57-.77,2.36-1.14l1.11-.49c.08,0,.71-.31.14-.07s.39-.16.52-.21q2.43-1,4.93-1.76a69.85,69.85,0,0,1,10.38-2.44c.46-.07.93-.15,1.4-.2l.27,0c.93-.1,1.87-.19,2.81-.26,1.74-.14,3.49-.21,5.24-.21s3.63,0,5.44.17c.87.06,1.74.14,2.61.23l1.2.14c.11,0,.79.1.14,0s.21,0,.33,0a72.5,72.5,0,0,1,10.41,2.33q2.61.8,5.14,1.78l1.12.45c.69.27-.75-.34-.08,0l.55.24c.86.38,1.72.77,2.56,1.19,1.57.77,3.1,1.61,4.61,2.5a5,5,0,1,0,5-8.64,77.34,77.34,0,0,0-64.88-5.88,82.63,82.63,0,0,0-19.6,10.56c-6.16,4.4-11.93,9.31-17.8,14.08-1.37,1.11-2.75,2.22-4.15,3.3-.12.1-.8.62-.3.24l-.13.1-1,.74c-.75.57-1.52,1.13-2.29,1.68a94.68,94.68,0,0,1-9,5.81c-1.63.9-3.28,1.75-5,2.52-.4.19-.8.36-1.21.54.88-.39-.34.14-.62.25-.95.38-1.91.73-2.87,1.07a74.78,74.78,0,0,1-11.21,2.92c-.94.18-1.87.33-2.82.47l-.65.09c.07,0,.83-.1.24,0l-1.53.18c-2,.22-3.94.36-5.93.45a103.64,103.64,0,0,1-11.69-.17q-3-.19-5.93-.56l-.9-.11-.51-.07-.71-.1c-1.1-.17-2.2-.34-3.3-.53-4.15-.71-8.26-1.6-12.35-2.62-8.19-2-16.25-4.58-24.27-7.22l-6.12-2a5,5,0,0,0-6.15,3.49,5.11,5.11,0,0,0,3.49,6.15Z"/><rect class="cls-7" x="896.76" y="1034.73" width="121.87" height="87.17"/><polygon class="cls-9" points="1054.69 1086.18 1018.63 1121.9 1018.63 1034.73 1054.69 1002.8 1054.69 1086.18"/><polygon class="cls-10" points="1018.63 1034.73 896.76 1034.73 936.06 1002.8 1054.69 1002.8 1018.63 1034.73"/><path class="cls-4" d="M612.32,987.55q.34,28.2.68,56.39c-3.74.45-20.27,2.85-32.23,17.46A48.88,48.88,0,0,0,570,1088.25c-2.26-3.1-18.39-26-10.77-54.29C565.69,1010.08,586.51,991.87,612.32,987.55Z"/><path class="cls-5" d="M612.88,1034.52l.12,9.42a50.49,50.49,0,0,0-29.77,14.69c-10.87,11.26-12.76,25-13.2,29.62a45,45,0,0,1,2.24-23.75C581.88,1040,610.88,1034.84,612.88,1034.52Z"/><path class="cls-7" d="M646.63,735c-24.1,36.73-73.37,123.53-67.24,238a372.51,372.51,0,0,0,21,104.5l100.73.61a359.61,359.61,0,0,0,20.3-105.87C725.78,855.72,671.13,769.14,646.63,735Z"/><path class="cls-9" d="M646.63,735a391.66,391.66,0,0,1,43.14,114.65c21.12,103.37-5.67,188.78-21.08,228.23,9.22.24,23.21,0,32.43.2a352.57,352.57,0,0,0,14.81-55.71,360.27,360.27,0,0,0,5.54-62.3c0-17.2-1.17-65.11-21.15-122.8A387.34,387.34,0,0,0,646.63,735Z"/><path class="cls-4" d="M702.56,984.38q-.33,28.2-.67,56.39c3.73.45,20.27,2.85,32.22,17.46a48.88,48.88,0,0,1,10.74,26.85c2.26-3.1,18.39-26,10.77-54.29C749.19,1006.91,728.38,988.7,702.56,984.38Z"/><path class="cls-5" d="M702,1031.35l-.11,9.42a50.77,50.77,0,0,1,11.59,2.86,50.17,50.17,0,0,1,18.18,11.83c10.86,11.26,12.76,25,13.19,29.62a44.81,44.81,0,0,0-2.24-23.75C733,1036.79,704,1031.67,702,1031.35Z"/><circle class="cls-2" cx="646.63" cy="899.85" r="31.43"/><path class="cls-3" d="M677.25,892.79c-.27,2.87-1.78,16-13,25.5-15.37,13-34.87,7.27-36.26,6.84a31.43,31.43,0,0,0,49.29-32.34Z"/><polygon class="cls-4" points="623.64 1077.85 682.83 1077.85 676.59 1098.65 629.75 1098.65 623.64 1077.85"/><polygon class="cls-5" points="677.8 1077.85 672.13 1098.65 676.59 1098.65 682.83 1077.85 677.8 1077.85"/><path class="cls-5" d="M943.11,1000.9q.07,7.88.17,15.76a84.51,84.51,0,0,0,69.7.2q.39-8,.77-16a71.59,71.59,0,0,1-70.64,0Z"/><ellipse class="cls-6" cx="978.43" cy="1000.9" rx="35.32" ry="9.32"/></g></svg>