<svg xmlns="http://www.w3.org/2000/svg" viewBox="0 0 1440 1440"><defs><style>.cls-1{fill:#bae0ea;}.cls-2{fill:#77c8e5;}.cls-3{fill:#63b6cc;}.cls-4{fill:#f176ae;}.cls-5{fill:#e94696;}.cls-6{fill:#ef97c0;}.cls-7{fill:#41404d;}.cls-8{fill:#f6ce2d;}.cls-9{fill:#2d2d35;}.cls-10{fill:#52515b;}</style></defs><g id="Learn"><polygon class="cls-1" points="963.61 725.37 420.59 714.34 617.92 508.63 1152.74 505.81 963.61 725.37"/><polygon class="cls-2" points="963.61 1175.69 420.59 1164.31 420.59 714.34 963.61 725.37 963.61 1175.69"/><polygon class="cls-3" points="1152.74 1016.93 963.61 1175.69 963.61 725.37 1152.74 505.81 1152.74 1016.93"/><rect class="cls-4" x="582.2" y="373.12" width="300.37" height="300.64"/><polygon class="cls-5" points="1006.94 550.54 882.57 673.76 882.57 373.12 1006.94 262.98 1006.94 550.54"/><polygon class="cls-6" points="882.57 373.12 582.2 373.12 726.53 262.98 1006.94 262.98 882.57 373.12"/><ellipse class="cls-7" cx="686.03" cy="472.88" rx="8.57" ry="17.9"/><path class="cls-7" d="M769.92,472.88l-8.43,3.3c-.1-1.09-.14-2.19-.14-3.3,0-9.82,3.86-17.9,8.57-17.9s8.57,8.08,8.57,17.9c0,.79,0,1.58-.08,2.37Z"/><rect class="cls-7" x="695.16" y="561.73" width="74.44" height="8.16"/><rect class="cls-7" x="717.09" y="517.9" width="30.58" height="6.41" rx="2.3" transform="translate(211.28 1253.49) rotate(-90)"/><polygon class="cls-8" points="1034.32 1200.27 148.75 1182.78 383.46 938.11 1245.54 935.22 1034.32 1200.27"/><rect class="cls-7" x="650.5" y="997.37" width="86.07" height="86.15"/><polygon class="cls-9" points="772.21 1048.21 736.57 1083.52 736.57 997.37 772.21 965.81 772.21 1048.21"/><polygon class="cls-10" points="736.57 997.37 650.5 997.37 691.86 965.81 772.21 965.81 736.57 997.37"/><rect class="cls-7" x="406.71" y="999.76" width="78.53" height="78.6"/><polygon class="cls-9" points="517.76 1046.15 485.24 1078.36 485.24 999.76 517.76 970.97 517.76 1046.15"/><polygon class="cls-10" points="485.24 999.76 406.71 999.76 444.45 970.97 517.76 970.97 485.24 999.76"/><rect class="cls-7" x="456.9" y="1032.71" width="86.07" height="86.15"/><polygon class="cls-9" points="578.61 1083.55 542.97 1118.86 542.97 1032.71 578.61 1001.15 578.61 1083.55"/><polygon class="cls-10" points="542.97 1032.71 456.9 1032.71 498.26 1001.15 578.61 1001.15 542.97 1032.71"/><rect class="cls-7" x="650.5" y="913.84" width="86.07" height="86.15"/><polygon class="cls-9" points="772.21 964.68 736.57 999.99 736.57 913.84 772.21 882.28 772.21 964.68"/><polygon class="cls-10" points="736.57 913.84 650.5 913.84 691.86 882.28 772.21 882.28 736.57 913.84"/><rect class="cls-7" x="650.5" y="829.43" width="86.07" height="86.15"/><polygon class="cls-9" points="772.21 880.27 736.57 915.58 736.57 829.43 772.21 797.87 772.21 880.27"/><polygon class="cls-10" points="736.57 829.43 650.5 829.43 691.86 797.87 772.21 797.87 736.57 829.43"/><rect class="cls-7" x="650.5" y="745.9" width="86.07" height="86.15"/><polygon class="cls-9" points="772.21 796.74 736.57 832.05 736.57 745.9 772.21 714.34 772.21 796.74"/><polygon class="cls-10" points="736.57 745.9 650.5 745.9 691.86 714.34 772.21 714.34 736.57 745.9"/></g><g id="Build"><path class="cls-8" d="M1051.08,219.93c1.3-.55,2.61-1.07,3.94-1.55l-2.53.91a75,75,0,0,1,18.42-4.12l-2.72.24a71.39,71.39,0,0,1,18.35.76l-2.77-.49a67.25,67.25,0,0,1,16.82,5.33L1098,219.8a59.91,59.91,0,0,1,12.9,8.3l-2.07-1.77a50.31,50.31,0,0,1,8.74,9.63l-1.53-2.22a44,44,0,0,1,5,9.71l-.91-2.53a42.29,42.29,0,0,1,2.21,10l-.24-2.72a48.19,48.19,0,0,1-.58,12.52c.17-.93.33-1.86.5-2.78a65.13,65.13,0,0,1-5.23,16l1.21-2.55a86.87,86.87,0,0,1-12.51,19.15l1.77-2.07a64.65,64.65,0,0,1-11.73,10.87l2.21-1.52a34.51,34.51,0,0,1-7.39,3.94l2.53-.92a25.45,25.45,0,0,1-6.21,1.42l2.72-.24a27,27,0,0,1-6.54-.28l2.77.49a37.14,37.14,0,0,1-9.23-3l2.54,1.21c-6.24-3-11.8-7.12-17.32-11.25l-18.5-13.8-2.55-1.21a8,8,0,0,0-4.14-.37,10.34,10.34,0,0,0-6.1,2.57l-42,37.71c-4.1,3.68-4.77,10.79-.79,14.85a10.71,10.71,0,0,0,14.85.8l42-37.72-12.78,1,13.72,10.23c4.29,3.21,8.54,6.5,13,9.5a69.48,69.48,0,0,0,15.61,8.15,38.48,38.48,0,0,0,18.88,1.75c5.73-.91,11-3.61,15.69-6.86a63.27,63.27,0,0,0,9.56-8,96.86,96.86,0,0,0,14.56-19.08,93.37,93.37,0,0,0,6.24-13,72,72,0,0,0,3.71-14.09,48.87,48.87,0,0,0,.6-12.14,47.58,47.58,0,0,0-3.79-16.63,52.9,52.9,0,0,0-13-18.81,72.77,72.77,0,0,0-22.77-14.48c-16.75-6.81-36.47-7.13-53.59-1.5-2.92,1-5.81,2-8.64,3.22a10.52,10.52,0,0,0,1.61,19.37A11.69,11.69,0,0,0,1051.08,219.93Z"/><circle class="cls-8" cx="971.56" cy="342.75" r="9.05"/><path class="cls-8" d="M937.14,158.12c.64-.87,1.3-1.71,2-2.54l-1.31,1.57a57.1,57.1,0,0,1,10.5-9.81l-1.69,1.21A54.1,54.1,0,0,1,959,142l-2,.75a50.85,50.85,0,0,1,13.11-3l-2.14.19a45.6,45.6,0,0,1,11.67.47l-2-.36a38.27,38.27,0,0,1,9.45,3l-1.86-.87a34,34,0,0,1,7,4.44l-1.58-1.3a32,32,0,0,1,5.31,5.71c-.4-.57-.81-1.13-1.21-1.69a36.65,36.65,0,0,1,4.46,8.44l-.75-2a49,49,0,0,1,2.74,12.53l-.18-2.14a66,66,0,0,1-.83,17.41c.13-.68.25-1.36.37-2.05A49,49,0,0,1,997,193.09l.87-1.86a26.88,26.88,0,0,1-3.33,5.45l1.3-1.58a19.55,19.55,0,0,1-3.53,3.33l1.69-1.21a20.86,20.86,0,0,1-4.4,2.34l2-.75a28.41,28.41,0,0,1-7.23,1.58l2.14-.19a80.3,80.3,0,0,1-15.72-.7l-17.47-1.92-2.14.19a6,6,0,0,0-2.86,1.35,7.88,7.88,0,0,0-3,4q-6.51,20.49-13,41c-1.27,4,1,8.93,5.21,10.06A8.17,8.17,0,0,0,947.58,249l13-41-8,5.58,13,1.42c4.05.45,8.11,1,12.19,1.23a53.14,53.14,0,0,0,13.39-.67,27.57,27.57,0,0,0,20.73-16.7,48.58,48.58,0,0,0,3.18-9,71.68,71.68,0,0,0,1.28-29.09,54.77,54.77,0,0,0-3-10.67,36.68,36.68,0,0,0-4.29-8.21,43.35,43.35,0,0,0-4-5.12,43.83,43.83,0,0,0-4.89-4.34,40.29,40.29,0,0,0-15.76-7.35,55.23,55.23,0,0,0-20.54-.71A60.37,60.37,0,0,0,928,144.11c-1.55,1.75-3,3.57-4.43,5.44a8.08,8.08,0,0,0-1,6,8.19,8.19,0,0,0,3.53,5,8.07,8.07,0,0,0,6,1A8.89,8.89,0,0,0,937.14,158.12Z"/><circle class="cls-8" cx="932.34" cy="269.46" r="6.89"/></g></svg>