<svg xmlns="http://www.w3.org/2000/svg" viewBox="0 0 1450.73 1450.73"><defs><style>.cls-1{fill:#fff;}.cls-2{fill:#41404d;}.cls-3{fill:#f176ae;}.cls-4{fill:#e94696;}.cls-5{fill:#ef97c0;}.cls-6{fill:#77c8e5;}.cls-7{fill:#f6ce2d;}</style></defs><g id="stickers"><g id="levitating_robot_sticker" data-name="levitating robot sticker"><g id="background"><path class="cls-1" d="M1043.84,923.08l212.88-200.4-1.37-477.95-328.67-1.37a96.27,96.27,0,0,0,17.92-40.83c1.76-9.84,6.18-34.2-8.45-57.33a72.21,72.21,0,0,0-32.44-27.48c-31.66-13.5-61.9,1.06-65.79,3-19.81,9.94-15.14,18.44-47.82,45.29-18.79,15.43-22.7,15.78-40.2,30.57a287,287,0,0,0-45.08,48.14H493.92L196.74,462.48,194,988.36l314.6-1.55c26.08,47.4,56.32,71.11,82.67,83.67,35.74,17,75.21,18.75,75.46,30.27.15,6.51-12.42,8.68-36.81,26.31-19.44,14-33.53,24.24-33.58,33.23-.06,11.64,23.35,27.65,123.64,47.35-37.82,3.64-62.56,24.95-61.82,40.12.77,15.75,29.55,35.94,71,32.88-25.73,15.38-27.46,25.64-26.87,30.44,2.23,18.34,47,29.15,81.46,27.43,31.42-1.57,72.67-14.45,73.65-32.23.28-5.11-2.59-13.76-22.36-25,42,1.56,68.85-23.89,67.73-42.75-.86-14.69-18.94-29.51-42.74-35.51,97.72-24.22,108.68-43.22,108.51-52.61-.2-10.43-18.41-20.88-38.8-32.88-28.11-16.54-39.58-15.49-41-22.7-3.61-17.75,64.67-30.94,111-82.5C1027.84,981,1038.89,945.59,1043.84,923.08Z"/></g><g id="robot"><path class="cls-2" d="M1011.84,864.52c0,121.34-109.85,219.71-245.35,219.71S521.13,985.86,521.13,864.52,1011.84,743.17,1011.84,864.52Z"/><rect class="cls-3" x="238.06" y="484.8" width="714.48" height="462.7"/><polygon class="cls-4" points="1214.73 724.73 952.55 947.5 952.55 484.8 1214.73 284.75 1214.73 724.73"/><polygon class="cls-5" points="952.55 484.8 238.06 484.8 500.25 284.75 1214.73 284.75 952.55 484.8"/><rect class="cls-2" x="310.31" y="566.51" width="553.42" height="158.22"/><path class="cls-2" d="M583.09,863.29a65.32,65.32,0,0,1-61.21-43,15.26,15.26,0,0,1,28.6-10.64C555.82,824,570,833.5,584.87,832.73c13.94-.7,26.44-10.26,31.1-23.78a15.26,15.26,0,1,1,28.85,9.93c-8.67,25.19-32.15,43-58.42,44.33C585.3,863.26,584.19,863.29,583.09,863.29Z"/><path class="cls-6" d="M760.09,1190.23a693,693,0,0,1-73.49-3.68c-59.72-6.58-62-18-62.93-22.88-2.85-14.43,20.17-23.4,53-34.51a258.64,258.64,0,0,1,68.42-12.82,6.94,6.94,0,1,1,.78,13.85,244.71,244.71,0,0,0-64.75,12.11c-9.62,3.25-37.86,12.81-43.25,18.94,10.11,8.71,79.77,18.38,159.63,14.17,64.68-3.4,121-15,130.15-23.24-4.45-4.15-21-9.56-49.24-16.11a291.92,291.92,0,0,0-79.63-6.83,6.93,6.93,0,1,1-.66-13.85,304.93,304.93,0,0,1,83.42,7.17c40.53,9.39,61,16.6,60.64,30-.24,7.8-6.64,17-52.37,26-26,5.11-60.27,9.14-91.59,10.79C785.89,1189.91,773,1190.23,760.09,1190.23Zm-123-29.87"/><path class="cls-6" d="M769.2,1266.67a397.44,397.44,0,0,1-44.39-2.34c-33.35-3.87-39-10.54-40.12-16.55-2-10.87,12.33-17,32.84-24.36l.64-.23c11.92-4.31,24-6.7,41.66-8.26h0c23.44-2.06,50-4.4,82.93,4,24,6.12,38.53,10.61,38.35,21.36-.14,8.69-10.05,14.22-34.2,19.09a413.26,413.26,0,0,1-54.69,6.67C784.77,1266.47,777,1266.67,769.2,1266.67Zm-68.34-21.19c11.8,4.58,49.87,9,90.59,6.73,32.73-1.82,62.88-7.48,73.15-12.09-6.16-2.86-18.6-6-25.27-7.74-30.64-7.83-56-5.6-78.28-3.63h0c-19.15,1.69-29.1,4.21-38.16,7.48l-.63.23C717.92,1238,706.49,1242.16,700.86,1245.48Zm59.58-23.64h0Z"/><path class="cls-6" d="M773.11,1321.18c-8.42,0-16.9-.32-24.12-.93-17.11-1.46-23.07-3.78-24.54-9.53-2.32-9.07,8.82-12,20.62-15.07a109.31,109.31,0,0,1,23-3.34,6.94,6.94,0,0,1,.6,13.86c-3.29.14-6.5.42-9.6.84,7.68.36,16.63.45,26,.07,5-.21,9.85-.53,14.27-.92a124,124,0,0,0-13.54-.23,6.93,6.93,0,1,1-.51-13.86,131.18,131.18,0,0,1,27.86,1.85c13.36,2.39,23.92,4.28,23.59,12.85-.18,4.53-.47,12.11-51.11,14.17C781.57,1321.1,777.35,1321.18,773.11,1321.18Z"/><path class="cls-2" d="M705.41,392a20.52,20.52,0,0,1-2.81-.19,20.8,20.8,0,0,1-17.84-23.4,244,244,0,0,1,55.83-125.59c44.57-52.44,99.75-72.06,128.68-79.08a20.8,20.8,0,1,1,9.82,40.43c-24,5.84-69.83,22.12-106.79,65.6A202.54,202.54,0,0,0,726,374,20.81,20.81,0,0,1,705.41,392Z"/><circle class="cls-7" cx="874.18" cy="183.99" r="54.34"/><ellipse class="cls-6" cx="483.75" cy="645.62" rx="17.07" ry="26.68"/><ellipse class="cls-6" cx="667.8" cy="645.62" rx="17.07" ry="26.68"/></g></g></g></svg>