<?xml version="1.0" encoding="utf-8"?>
<!-- Generator: Adobe Illustrator 23.0.2, SVG Export Plug-In . SVG Version: 6.00 Build 0)  -->
<svg version="1.1" id="Layer_1" xmlns="http://www.w3.org/2000/svg" xmlns:xlink="http://www.w3.org/1999/xlink" x="0px" y="0px"
	 viewBox="0 0 400 400" style="enable-background:new 0 0 400 400;" xml:space="preserve">
<style type="text/css">
	.st0{fill:#95A3AB;}
	.st1{fill:#231F20;}
</style>
<title>Artboard 2</title>
<path class="st0" d="M45-87.2H31.8v-46.7H45V-87.2z"/>
<path class="st0" d="M61.3-98.5h9.9v11.3H47.6v-46.7h13.7V-98.5z"/>
<path class="st0" d="M85.1-105.6l5.1-28.4h14.5L92.8-87.2H77.3l-11.7-46.7h14.5L85.1-105.6z"/>
<path class="st0" d="M165.2-87.2h-14.4l-7.4-18h-0.6v18h-13v-46.7h13.5c10.4-0.3,19.7,5.4,20,14.4c0.2,6.7-3.3,12.3-8.6,13.2
	L165.2-87.2z M142.8-112h1.2c3.9,0,5.3-3.7,5.4-5.8c0.1-6.1-4.6-6-5.4-5.8h-1.2V-112z"/>
<path class="st0" d="M178.6-97.5h10.1v10.3h-23.9v-46.7h13.8V-97.5z"/>
<path class="st0" d="M200.5-93.3l-1.4,6.1h-14.2l12.3-46.7h16l11.5,46.8h-14.2l-1.3-6.1L200.5-93.3z M204.9-120.6l-0.1,1l-3.1,15.9
	h6.2L204.9-120.6z"/>
<path class="st0" d="M244.4-133.9h13.9L247-111.9l12.5,24.6h-14.4l-8.4-20.3h-0.1v20.3h-14.3v-46.7h14.3v19.2h0.1L244.4-133.9z"/>
<path class="st0" d="M271.9-123.2v7.3h10.6v10.3h-10.6v7.5h11.8v10.8h-25v-46.7h25v10.7H271.9z"/>
<path class="st0" d="M117.3-123.2v7.3h10.3v10.3h-10.3v7.5h11.4v10.8h-24.2v-46.7h24.2v10.7H117.3z"/>
<path class="st0" d="M25.7-119.8l2.5-11.1c0,0-3.2-3.8-11.2-4.1c0,0-13.2-0.5-16.5,14.2c0,0-2.3,11.7,11.4,15.9c0,0,5.3,1,4.5,3.3
	c0,0-0.5,2.4-5.6,0.7c-2.5-0.9-4.9-2.2-7-3.9L0-92.3c0,0,6.6,5.7,14.6,5.9c0,0,15.4,0.6,15.9-15c0,0,1.2-10.9-9-14.9
	c0,0-7.1-2.3-6.4-5c0,0,0.4-2,3.6-1.9C18.8-123.1,23.3-122.2,25.7-119.8z"/>
<path class="st1" d="M11.4-78.9v1.1c-0.9-0.6-1.9-0.9-3-1c-0.7,0-1.4,0.2-2,0.7c-0.5,0.5-0.8,1.1-0.8,1.8c0,0.5,0.2,1,0.5,1.4
	c0.6,0.6,1.2,1,2,1.2c0.8,0.3,1.5,0.6,2.2,1c0.5,0.3,0.9,0.6,1.2,1.1c0.3,0.6,0.5,1.2,0.5,1.9c0,1-0.4,1.9-1.1,2.6
	C10.1-66.4,9.1-66,8-66c-1.2,0-2.4-0.4-3.4-1.2v-1.3C5.6-67.7,6.8-67.2,8-67c0.7,0,1.5-0.3,2-0.8c0.9-0.9,1.1-2.3,0.3-3.4
	c-0.6-0.6-1.3-1-2.1-1.3c-0.8-0.3-1.5-0.6-2.2-1c-0.4-0.2-0.8-0.6-1.1-1c-0.3-0.5-0.5-1.1-0.5-1.7c0-1,0.4-1.9,1.1-2.5
	c0.7-0.7,1.7-1,2.7-1C9.4-79.7,10.4-79.4,11.4-78.9z"/>
<path class="st1" d="M23.9-79.5l-5.2,6.1v7.1h-1v-7.1l-5.2-6.1h1.2l4.4,5.2l4.4-5.2H23.9z"/>
<path class="st1" d="M31.3-73.4l5-6.2h1v13.3h-1V-78l-5,6.2L26.2-78v11.8h-1v-13.3h1L31.3-73.4z"/>
<path class="st1" d="M46.3-73.4l5-6.2h1v13.3h-1V-78l-5,6.2L41.2-78v11.8h-1v-13.3h1L46.3-73.4z"/>
<path class="st1" d="M62.4-79.5v0.9h-6.2v5.3h6v0.9h-6v5.4h6.4v0.8h-7.4v-13.3H62.4z"/>
<path class="st1" d="M74-79.5v0.9h-5v12.4h-1v-12.4h-5v-0.9H74z"/>
<path class="st1" d="M75.5-79.5h3.4c1.2-0.1,2.3,0.2,3.3,0.9c0.8,0.6,1.2,1.5,1.1,2.5c0,1.5-1,2.9-2.5,3.2c0.7,0.5,1.3,1.2,1.8,2
	l3,4.6h-1.2L82-69.9c-0.5-0.8-1.1-1.6-1.8-2.3c-0.6-0.3-1.2-0.5-1.9-0.5h-1.8v6.4h-1L75.5-79.5z M76.5-78.7v5.2h2.2
	c0.9,0.1,1.8-0.2,2.6-0.7c0.6-0.5,0.9-1.2,0.9-1.9c0-0.7-0.3-1.4-0.9-1.9c-0.8-0.5-1.7-0.7-2.6-0.7L76.5-78.7z"/>
<path class="st1" d="M95.4-79.5l-5.2,6.1v7.1h-1v-7.1l-5.2-6.1h1.2l4.4,5.2l4.4-5.2H95.4z"/>
<path class="st1" d="M106.1-79.6l6.1,13.4h-1.1l-2.1-4.6h-6.5l-2.1,4.6h-1.1l6.1-13.4H106.1z M108.6-71.7l-2.9-6.2l-2.8,6.2
	L108.6-71.7z"/>
<path class="st1" d="M121.2-79.5v0.9h-5v12.4h-1v-12.4h-5v-0.9H121.2z"/>
<path class="st1" d="M134.4-77.3l-4.4,11.2h-0.3l-5.3-13.4h1l4.4,11l4.4-11h0.3l4.4,11l4.4-11h1L139-66.1h-0.2L134.4-77.3z"/>
<path class="st1" d="M151.4-79.7c1.9,0,3.7,0.7,5,2c2.7,2.6,2.7,6.9,0.1,9.5c0,0-0.1,0.1-0.1,0.1c-1.3,1.3-3.1,2-5,2
	c-1.9,0-3.7-0.7-5-2c-2.7-2.6-2.7-6.9-0.1-9.5c0,0,0.1-0.1,0.1-0.1C147.7-79,149.5-79.7,151.4-79.7z M151.4-67
	c1.6,0,3.1-0.6,4.2-1.7c2.3-2.3,2.3-6,0-8.3c-1.1-1.1-2.6-1.7-4.2-1.7c-1.6,0-3.1,0.6-4.2,1.7c-2.3,2.3-2.3,6,0,8.3
	C148.3-67.6,149.8-67,151.4-67L151.4-67z"/>
<path class="st1" d="M160.7-79.5h3.4c1.2-0.1,2.3,0.3,3.3,0.9c0.8,0.6,1.2,1.5,1.1,2.5c0,1.5-1,2.9-2.5,3.2c0.7,0.5,1.3,1.2,1.8,2
	l3,4.6h-1.2l-2.3-3.7c-0.5-0.8-1.1-1.6-1.8-2.3c-0.6-0.3-1.2-0.5-1.9-0.5h-1.8v6.4h-1L160.7-79.5z M161.7-78.7v5.2h2.3
	c0.9,0.1,1.8-0.2,2.6-0.7c0.6-0.5,0.9-1.2,0.9-1.9c0-0.7-0.3-1.5-0.9-1.9c-0.8-0.5-1.7-0.7-2.6-0.7H161.7z"/>
<path class="st1" d="M180.3-79.5l-6.3,6.6l6.9,6.6h-1.3l-7-6.6v6.6h-1v-13.2h1v6.6l6.4-6.6L180.3-79.5z"/>
<g>
	<path class="st0" d="M84.5,215.8H68.8v-55.7h15.7V215.8z"/>
	<path class="st0" d="M103.9,202.3h11.8v13.5H87.5v-55.7h16.4V202.3z"/>
	<path class="st0" d="M132.4,193.9l6.1-33.8h17.3l-14.2,55.7H123l-13.9-55.7h17.3L132.4,193.9z"/>
	<path class="st0" d="M227.8,215.8h-17.2l-8.8-21.5h-0.7v21.5h-15.5v-55.7h16.1c12.4-0.4,23.6,6.4,23.9,17.2
		c0.2,8-3.9,14.6-10.3,15.7L227.8,215.8z M201.1,186.2h1.4c4.7,0,6.4-4.4,6.4-7c0.1-7.3-5.5-7.2-6.4-7h-1.4V186.2z"/>
	<path class="st0" d="M243.9,203.5h12v12.3h-28.5v-55.7h16.5V203.5z"/>
	<path class="st0" d="M270,208.5l-1.7,7.3h-16.9l14.7-55.7h19.1l13.7,55.8h-17l-1.5-7.3L270,208.5z M275.3,176.1l-0.1,1.2l-3.7,19
		h7.4L275.3,176.1z"/>
	<path class="st0" d="M322.4,160.1H339l-13.5,26.4l14.9,29.4h-17.2l-10-24.2h-0.1v24.2h-17.1v-55.7h17.1v23h0.1L322.4,160.1z"/>
	<path class="st0" d="M355.2,172.9v8.7h12.7v12.3h-12.7v9h14v12.9h-29.8v-55.7h29.8v12.8H355.2z"/>
	<path class="st0" d="M170.8,172.9v8.7H183v12.3h-12.3v9h13.6v12.9h-28.9v-55.7h28.9v12.8H170.8z"/>
	<path class="st0" d="M61.4,177l3-13.2c0,0-3.8-4.5-13.4-4.9c0,0-15.7-0.6-19.6,17c0,0-2.8,13.9,13.6,18.9c0,0,6.3,1.2,5.4,4
		c0,0-0.6,2.9-6.7,0.9c-3-1.1-5.9-2.6-8.4-4.6l-4.6,14.7c0,0,7.9,6.8,17.5,7.1c0,0,18.3,0.7,19-17.9c0,0,1.5-13-10.7-17.8
		c0,0-8.4-2.7-7.6-6c0,0,0.4-2.4,4.3-2.2C53.2,173,58.6,174.1,61.4,177z"/>
	<path class="st1" d="M44.4,225.8v1.4c-1.1-0.7-2.3-1.1-3.6-1.2c-0.9,0-1.7,0.3-2.4,0.9c-0.6,0.5-1,1.3-1,2.2c0,0.6,0.2,1.2,0.6,1.6
		c0.7,0.7,1.5,1.1,2.4,1.4c0.9,0.3,1.8,0.7,2.6,1.2c0.6,0.3,1,0.8,1.4,1.3c0.4,0.7,0.6,1.5,0.6,2.2c0,1.2-0.5,2.3-1.3,3.1
		c-0.9,0.8-2.1,1.3-3.3,1.3c-1.5,0-2.9-0.5-4-1.4v-1.5c1.1,1,2.5,1.6,4,1.7c0.9,0,1.7-0.3,2.4-0.9c1.1-1.1,1.3-2.8,0.4-4
		c-0.7-0.7-1.5-1.2-2.4-1.5c-0.9-0.3-1.8-0.7-2.6-1.2c-0.5-0.3-1-0.7-1.3-1.2c-0.4-0.6-0.6-1.3-0.5-2.1c0-1.1,0.5-2.2,1.3-3
		c0.9-0.8,2-1.2,3.2-1.2C42,224.8,43.2,225.2,44.4,225.8z"/>
	<path class="st1" d="M59.3,225l-6.2,7.3v8.5h-1.2v-8.5l-6.2-7.3h1.5l5.3,6.3l5.3-6.3H59.3z"/>
	<path class="st1" d="M68.1,232.4l6-7.3h1.2v15.8h-1.2v-14l-6,7.4l-6-7.4v14h-1.2V225H62L68.1,232.4z"/>
	<path class="st1" d="M86,232.4l6-7.3h1.2v15.8h-1.2v-14l-6,7.4l-6-7.4v14h-1.2V225h1.2L86,232.4z"/>
	<path class="st1" d="M105.3,225v1h-7.4v6.3h7.2v1h-7.2v6.4h7.6v1h-8.8V225H105.3z"/>
	<path class="st1" d="M119.1,225v1h-6v14.8h-1.2V226h-6v-1H119.1z"/>
	<path class="st1" d="M120.8,225h4.1c1.4-0.1,2.8,0.3,3.9,1.1c0.9,0.7,1.4,1.8,1.3,3c0,1.8-1.2,3.4-3,3.9c0.9,0.6,1.6,1.4,2.1,2.4
		l3.6,5.5h-1.5l-2.7-4.4c-0.6-1-1.3-1.9-2.1-2.7c-0.7-0.4-1.5-0.6-2.3-0.5H122v7.6h-1.2L120.8,225z M122,226v6.2h2.6
		c1.1,0.1,2.2-0.2,3.1-0.8c0.7-0.5,1.1-1.4,1.1-2.3c0-0.9-0.4-1.7-1-2.2c-0.9-0.6-2-0.9-3.1-0.8L122,226z"/>
	<path class="st1" d="M144.6,225l-6.2,7.3v8.5h-1.2v-8.5l-6.2-7.3h1.5l5.3,6.3l5.3-6.3H144.6z"/>
	<path class="st1" d="M157.3,224.9l7.3,15.9h-1.3l-2.5-5.5h-7.7l-2.5,5.5h-1.3l7.3-15.9L157.3,224.9z M160.4,234.3l-3.4-7.4
		l-3.4,7.4L160.4,234.3z"/>
	<path class="st1" d="M175.4,225v1h-6v14.8h-1.2V226h-6v-1H175.4z"/>
	<path class="st1" d="M191.1,227.6l-5.3,13.4h-0.3l-6.4-16h1.2l5.2,13.1l5.3-13.1h0.4l5.3,13.1l5.3-13.1h1.2l-6.4,16h-0.3
		L191.1,227.6z"/>
	<path class="st1" d="M211.4,224.8c2.2,0,4.4,0.8,6,2.4c3.2,3.1,3.3,8.2,0.2,11.4c-0.1,0.1-0.1,0.1-0.2,0.2c-1.6,1.6-3.7,2.4-6,2.4
		c-2.2,0-4.4-0.8-6-2.4c-3.2-3.1-3.3-8.2-0.2-11.4c0.1-0.1,0.1-0.1,0.2-0.2C207,225.6,209.2,224.7,211.4,224.8z M211.4,239.9
		c1.9,0,3.7-0.7,5-2c2.7-2.8,2.7-7.2,0-9.9c-1.3-1.3-3.1-2.1-5-2c-1.9,0-3.7,0.7-5,2c-2.7,2.7-2.7,7.2,0,9.9
		C207.7,239.2,209.5,239.9,211.4,239.9L211.4,239.9z"/>
	<path class="st1" d="M222.5,225h4.1c1.4-0.1,2.8,0.3,3.9,1.1c0.9,0.7,1.4,1.8,1.3,3c0,1.8-1.2,3.4-3,3.9c0.9,0.6,1.6,1.4,2.1,2.4
		l3.6,5.5h-1.4l-2.7-4.4c-0.6-1-1.3-1.9-2.1-2.7c-0.7-0.4-1.5-0.6-2.3-0.5h-2.1v7.6h-1.2L222.5,225z M223.7,226v6.2h2.7
		c1.1,0.1,2.2-0.2,3.1-0.8c0.7-0.5,1.1-1.4,1-2.3c0-0.9-0.4-1.7-1.1-2.3c-0.9-0.6-2-0.9-3.1-0.8H223.7z"/>
	<path class="st1" d="M245.9,225l-7.5,7.9l8.3,7.9h-1.6l-8.4-7.9v7.9h-1.2V225h1.2v7.9l7.6-7.9L245.9,225z"/>
</g>
</svg>
